<svg width="325" height="227" viewBox="0 0 325 227" fill="none" xmlns="http://www.w3.org/2000/svg">
<line x1="2.61523" y1="226.5" x2="310.995" y2="226.5" stroke="#D0D3D9" stroke-linecap="round" stroke-linejoin="round" stroke-dasharray="3.5 3.5"/>
<line x1="2.41406" y1="180.9" x2="315.315" y2="180.9" stroke="#D0D3D9" stroke-linecap="round" stroke-linejoin="round"/>
<line x1="2.41406" y1="135.3" x2="315.315" y2="135.3" stroke="#D0D3D9" stroke-linecap="round" stroke-linejoin="round"/>
<line x1="2.41406" y1="89.5" x2="306.028" y2="89.5001" stroke="#D0D3D9" stroke-linecap="round" stroke-linejoin="round"/>
<line x1="2.41406" y1="44.5" x2="306.028" y2="44.5001" stroke="#D0D3D9" stroke-linecap="round" stroke-linejoin="round"/>
<path d="M0.957031 82.5995C9.84664 85.6066 28.4913 117.3 44.7845 129.279C65.1511 144.254 67.0108 93.5255 83.9985 71.6977C100.986 49.8698 114.65 62.0505 131.962 65.5588C149.273 69.0672 154.42 61.0481 173.135 82.0983C200.448 112.819 205.383 102.172 215.144 86.8584C220.65 78.0595 235.571 50.5805 244.431 71.6977C255.506 98.0941 261.923 133.914 272.963 127.79C283.944 121.699 296.653 95.6305 296.653 95.6305C296.653 95.6305 301.004 80.9321 316.772 74.0791" stroke="#B6D3FA" stroke-width="2"/>
<path d="M275.574 141.194C291.897 129.249 308.293 119.046 315.815 129V226.772L0.000457764 227V57C15.7967 63.8329 19.5354 64 29.8854 97.697C38.3984 125.413 32.048 147.552 43.0489 153.625C54.1087 159.731 67.2214 140.301 78.3163 113.982C87.1923 92.9268 100.444 105.209 105.96 113.982C115.738 129.251 131.846 139.605 144.784 124.016C160.956 104.53 169.889 110.097 190.292 124.016C210.695 137.935 211.355 131.861 228.373 153.625C245.392 175.389 255.17 156.125 275.574 141.194Z" fill="url(#paint0_linear_427_375)" fill-opacity="0.5"/>
<path d="M315.815 124.252C300.468 128.25 291.21 127.803 274.889 139.79C254.487 154.773 244.709 176.612 227.692 154.773C210.675 132.933 211.169 138.219 190.768 124.252C170.366 110.285 161.435 104.698 145.264 124.252C132.327 139.895 116.22 129.505 106.443 114.183C100.927 105.38 87.6768 93.0549 78.8016 114.183C67.7076 140.594 54.596 160.091 43.5372 153.964C32.5372 147.869 40.0639 125.202 30.3748 97.8417C21.4209 72.5572 16.7523 62.8566 0.957465 56" stroke="#DBA362" stroke-width="2"/>
<defs>
<linearGradient id="paint0_linear_427_375" x1="158.273" y1="115.938" x2="158.886" y2="226.77" gradientUnits="userSpaceOnUse">
<stop stop-color="#DF9B2D" stop-opacity="0.13"/>
<stop offset="1" stop-color="#C5A674" stop-opacity="0.13"/>
</linearGradient>
</defs>
</svg>
